# xmcd
#
# Track frame offsets:
#       150
#       16073
#       32031
#       47627
#       61887
#       77420
#       92398
#       107809
#       122420
#       137207
#       151174
#       162025
#       178037
#       194036
#       209620
#       224067
#
# Disc length: 3194 seconds
#
# Revision: 0
# Processed by: cddbd v1.5.2PL0 Copyright (c) Steve Scherf et al.
# Submitted via: WaveLab 6.10
#
DISCID=d50c7810
DTITLE=김경민 - 김경민의 사오정
DYEAR=2010
DGENRE=Trot
TTITLE0=01 사오정
TTITLE1=02 사랑의 풍차
TTITLE2=03 하늘아
TTITLE3=04 내 마음을 아시나요
TTITLE4=05 사랑 따뜻한 이름
TTITLE5=06 인생은 새옹지마
TTITLE6=07 사랑의 초록등
TTITLE7=08 아미새
TTITLE8=09 사나이 엘레지
TTITLE9=10 무조건
TTITLE10=11 이정표 없는 거리
TTITLE11=12 사오정(Inst.)
TTITLE12=13 사랑의 풍차(Inst.)
TTITLE13=14 하늘아(Inst.)
TTITLE14=15 내 마음을 아시나요(Inst.)
TTITLE15=16 사랑 따뜻한 이름(Inst.)
EXTD=
EXTT0=
EXTT1=
EXTT2=
EXTT3=
EXTT4=
EXTT5=
EXTT6=
EXTT7=
EXTT8=
EXTT9=
EXTT10=
EXTT11=
EXTT12=
EXTT13=
EXTT14=
EXTT15=
PLAYORDER=
